<?xml version="1.0" standalone="no"?>
<!DOCTYPE svg PUBLIC "-//W3C//DTD SVG 1.1//EN" "http://www.w3.org/Graphics/SVG/1.1/DTD/svg11.dtd" >
<svg xmlns="http://www.w3.org/2000/svg">
<metadata>
This is a custom SVG webfont generated by Font Squirrel.
Copyright   : Copyright c 2006 by Ralph du Carrois All rights reserved
Designer    : Ralph du Carrois
Foundry     : Ralph du Carrois
</metadata>
<defs>
<font id="SuzukiPRORegular" horiz-adv-x="1105" >
<font-face units-per-em="2048" ascent="1634" descent="-414" />
<missing-glyph horiz-adv-x="614" />
<glyph unicode=" "  horiz-adv-x="614" />
<glyph unicode="&#x09;" horiz-adv-x="614" />
<glyph unicode="&#xa0;" horiz-adv-x="614" />
<glyph unicode="!" horiz-adv-x="552" d="M174 0v205h205v-205h-205zM180 1475h185l-21 -983h-143z" />
<glyph unicode="&#x22;" horiz-adv-x="819" d="M154 1315v190h204v-188l-51 -289h-102zM461 1315v190h205v-188l-52 -289h-102z" />
<glyph unicode="#" horiz-adv-x="1177" d="M104 403l9 125h163l35 387h-166l13 125h164l34 394h146l-35 -394h291l35 394h145l-35 -394h170l-12 -125h-168l-35 -387h170l-8 -125h-172l-35 -403h-145l34 403h-290l-35 -403h-146l35 403h-162zM422 528h291l35 387h-291z" />
<glyph unicode="$" d="M104 299l160 29q12 -41 35 -80t59.5 -70t90 -50t124.5 -19q41 0 87.5 13t84 44t63.5 78t26 114q0 78 -23 129.5t-69 88t-116.5 67.5t-166.5 70q-160 63 -229.5 157.5t-69.5 210.5q0 154 89 251.5t251 117.5v229h147v-231q72 -10 129.5 -40t100.5 -71t71.5 -91t44.5 -101 l-151 -29q-25 80 -89.5 141.5t-179.5 61.5q-49 0 -94 -12.5t-78.5 -39t-54 -68.5t-20.5 -99q0 -43 11 -79t43 -68.5t89 -64.5t147 -65q74 -27 144.5 -61.5t124 -86.5t86.5 -125t33 -177q0 -72 -25 -138.5t-71 -120t-112.5 -90t-148.5 -49.5v-251h-147v249q-86 10 -152.5 43 t-116 79t-81.5 99.5t-46 104.5z" />
<glyph unicode="%" horiz-adv-x="1515" d="M123 1108q0 86 22.5 151.5t61.5 108.5t88 64.5t104 21.5t105.5 -21.5t88.5 -64.5t61.5 -108.5t23.5 -151.5t-23.5 -150.5t-62.5 -107.5t-89 -63.5t-104 -20.5q-53 0 -103 20.5t-89 63.5t-61.5 107.5t-22.5 150.5zM266 1108q0 -123 37 -176t96 -53t98.5 53t39.5 176 t-39 176t-99 53q-59 0 -96 -53t-37 -176zM397 0l564 1434h151l-563 -1434h-152zM838 326q0 86 22.5 151.5t61.5 108.5t88 64.5t104 21.5t105.5 -21.5t88.5 -64.5t61.5 -108.5t23.5 -151.5t-23.5 -150.5t-62.5 -107.5t-89.5 -63.5t-103.5 -20.5t-103 20.5t-89 63.5 t-61.5 107.5t-22.5 150.5zM981 326q0 -123 37 -176.5t96 -53.5t98 53.5t39 176.5t-38.5 176t-98.5 53q-59 0 -96 -53t-37 -176z" />
<glyph unicode="&#x26;" horiz-adv-x="1427" d="M164 354q0 74 18.5 131.5t54 105.5t86 89t115.5 82q-88 90 -146.5 175t-58.5 193q0 61 21.5 120t67 104t114 72.5t160.5 27.5q88 0 154.5 -25.5t111.5 -68.5t68.5 -98.5t23.5 -112.5q0 -70 -18 -125t-55 -102.5t-92.5 -89t-129.5 -84.5l342 -353q37 78 58.5 168t30.5 185 l139 -33q-12 -123 -42 -230.5t-79 -199.5l278 -285h-200l-162 164q-76 -86 -182.5 -135t-249.5 -49q-92 0 -171 28.5t-136.5 78.5t-89 118.5t-31.5 148.5zM334 369q0 -47 14 -92.5t48 -82t88.5 -59t131.5 -22.5q98 0 173 42t135 113l-394 402q-106 -68 -151 -135.5 t-45 -165.5zM393 1130q0 -35 9.5 -65.5t31 -63t54 -71.5t81.5 -90q72 41 118 76.5t73.5 70.5t38 73t10.5 83q0 92 -61.5 139t-147.5 47q-104 0 -155.5 -52.5t-51.5 -146.5z" />
<glyph unicode="'" horiz-adv-x="512" d="M154 1315v190h204v-188l-51 -289h-102z" />
<glyph unicode="(" horiz-adv-x="696" d="M154 676q0 186 25.5 330.5t67.5 260t95 210t111 182.5h131q-51 -94 -100.5 -196.5t-88.5 -220.5t-62.5 -258t-23.5 -308q0 -170 23.5 -309.5t62.5 -258t88 -220t101 -195.5h-131q-57 88 -110.5 182t-95.5 210t-67.5 259.5t-25.5 331.5z" />
<glyph unicode=")" horiz-adv-x="696" d="M113 -311q51 94 100 196.5t88 221t62.5 258t23.5 309.5q0 168 -23.5 308t-62.5 259t-88 221.5t-100 196.5h131q57 -86 110.5 -181.5t95.5 -211t67.5 -261t25.5 -331.5q0 -188 -25.5 -332.5t-67.5 -260.5t-95.5 -210t-110.5 -182h-131z" />
<glyph unicode="*" horiz-adv-x="962" d="M100 1169l50 148l282 -123l-29 311h156l-31 -309l285 123l47 -148l-299 -67l203 -230l-127 -90l-156 263l-155 -265l-125 92l200 230z" />
<glyph unicode="+" d="M133 590v143h340v334h160v-334h340v-143h-340v-340h-160v340h-340z" />
<glyph unicode="," horiz-adv-x="471" d="M80 -291l113 291h-60v205h205v-203l-143 -293h-115z" />
<glyph unicode="-" horiz-adv-x="870" d="M123 588v147h625v-147h-625z" />
<glyph unicode="." horiz-adv-x="471" d="M133 0v205h205v-205h-205z" />
<glyph unicode="/" horiz-adv-x="542" d="M-20 -184l428 1659h155l-428 -1659h-155z" />
<glyph unicode="0" d="M137 705q0 201 30 340t84 225t131 125t173 39t173 -39t131 -125t83 -225.5t29 -339.5q0 -197 -30 -335.5t-83 -224.5t-131 -125.5t-172 -39.5q-96 0 -173 39.5t-131 126.5t-84 225.5t-30 333.5zM305 705q0 -162 16.5 -275t49 -184.5t79 -104t105.5 -32.5t105.5 32.5 t79 104t49 184.5t16.5 275t-17.5 275.5t-49 185t-79 105.5t-104.5 34q-59 0 -105.5 -34t-78 -105.5t-49 -185t-17.5 -275.5z" />
<glyph unicode="1" d="M258 1106v160l279 168h174v-1293h223v-141h-658v141h273v1137z" />
<glyph unicode="2" d="M162 1102q14 74 48 138.5t85 112.5t121.5 74.5t158.5 26.5q72 0 141.5 -22.5t124 -69.5t87.5 -121t33 -174q0 -59 -15.5 -117.5t-48.5 -120t-83 -131t-120 -151.5l-334 -402h588v-145h-778v145l420 519q55 68 94 121t64.5 99t37 91t11.5 96q0 111 -56.5 181.5 t-179.5 70.5q-104 0 -165.5 -69.5t-73.5 -176.5z" />
<glyph unicode="3" d="M143 303l150 23q6 -37 25.5 -76t51 -69.5t73.5 -51t96 -20.5q47 0 92 14t81 47t57.5 88t21.5 137q0 84 -18.5 139.5t-51.5 89t-78 47t-98 13.5h-115v137h111q94 0 151.5 65.5t57.5 188.5q0 135 -60.5 195.5t-159.5 60.5q-53 0 -93 -21.5t-68.5 -53t-45 -71.5t-22.5 -77 l-149 25q16 84 55 145t92 100t114.5 57.5t125.5 18.5q76 0 145.5 -23.5t120.5 -69.5t82 -113.5t31 -155.5q0 -135 -67 -221.5t-177 -104.5q57 -6 108.5 -33.5t90 -74t62 -111t23.5 -146.5q0 -109 -35.5 -188.5t-95 -131.5t-134.5 -76.5t-152 -24.5q-141 0 -250 85.5 t-148 237.5z" />
<glyph unicode="4" d="M156 281v147l282 1006h162l-287 -1020h330l35 495h119v-495h196v-133h-196v-281h-158v281h-483z" />
<glyph unicode="5" d="M150 283l151 22q16 -80 72.5 -137t154.5 -57q39 0 84 13t83 52t62.5 106.5t24.5 178.5q0 92 -17 156.5t-48 105.5t-73 59.5t-93 18.5q-82 0 -141.5 -42t-85.5 -104h-123l39 779h624v-131h-477l-25 -472q41 41 98.5 65t129.5 24t137.5 -23t115.5 -77t79.5 -143t29.5 -224 q0 -106 -29.5 -193.5t-85 -150t-134 -96t-177.5 -33.5q-72 0 -134 23.5t-111.5 64.5t-83 96.5t-47.5 118.5z" />
<glyph unicode="6" d="M168 707q0 236 45 382t112.5 227t145.5 109.5t145 28.5q70 0 126.5 -21.5t98.5 -57.5t70.5 -81t44.5 -92l-147 -26q-33 88 -86 122.5t-107 34.5q-53 0 -103 -24.5t-90 -89t-64.5 -175t-26.5 -280.5q53 66 128 106.5t167 40.5q90 0 155.5 -33.5t108.5 -94t63.5 -145.5 t20.5 -185q0 -121 -33 -209t-88 -147.5t-127 -88t-149 -28.5q-209 0 -309.5 176t-100.5 551zM332 645q4 -154 20.5 -256t47 -164.5t75.5 -89t105 -26.5q43 0 85 14t73.5 52t51 102.5t19.5 162.5q0 184 -58.5 263t-158.5 79q-82 0 -147.5 -42t-112.5 -95z" />
<glyph unicode="7" d="M209 1290v144h745v-164l-450 -1270h-180l475 1290h-590z" />
<glyph unicode="8" d="M125 362q0 94 30.5 162t74.5 113t93.5 70.5t84.5 37.5q-37 16 -79 44t-77 70t-58.5 98.5t-23.5 127.5q0 98 33 168t86 114t121.5 65.5t142.5 21.5t142.5 -19.5t121.5 -61.5t86 -109.5t33 -163.5q0 -74 -26.5 -130.5t-65.5 -96t-81 -64.5t-75 -37q35 -12 85 -39.5t96 -75 t79 -117t33 -163.5q0 -86 -28.5 -159t-84 -126t-135.5 -82.5t-180 -29.5q-102 0 -181 29.5t-134.5 81.5t-84 121.5t-28.5 149.5zM301 377q0 -117 66.5 -194t185.5 -77t185.5 71t66.5 200q0 80 -34 135t-81 91t-98 56.5t-86 32.5q-39 -23 -76 -46t-65.5 -58t-46 -85 t-17.5 -126zM332 1096q0 -68 31.5 -115t74.5 -79t86 -50t66 -27q14 8 45 28.5t60.5 54.5t52 80t22.5 108q0 61 -17.5 107t-47 75t-69.5 43t-83 14t-83 -13t-70.5 -42t-49 -75t-18.5 -109z" />
<glyph unicode="9" d="M172 983q0 119 32 207t87 146.5t128 88t156 29.5q106 0 182.5 -41t125.5 -127t72.5 -220t23.5 -318q0 -233 -35 -383t-93 -236t-136 -117.5t-166 -31.5q-137 0 -222 66.5t-120 164.5l149 31q29 -82 83.5 -110t109.5 -28q63 0 112.5 30t83 97.5t51 177t19.5 269.5 q-45 -63 -114.5 -104.5t-170.5 -41.5q-94 0 -161.5 33t-111.5 92.5t-64.5 142.5t-20.5 183zM338 995q0 -180 58.5 -260t162.5 -80q82 0 145.5 44t108.5 100q-4 154 -19.5 257t-45 165.5t-72.5 88t-101 25.5q-43 0 -86 -16t-76.5 -56t-54 -106t-20.5 -162z" />
<glyph unicode=":" horiz-adv-x="471" d="M133 0v205h205v-205h-205zM133 899v205h205v-205h-205z" />
<glyph unicode=";" horiz-adv-x="471" d="M80 -291l113 291h-60v205h205v-203l-143 -293h-115zM133 899v205h205v-205h-205z" />
<glyph unicode="&#x3c;" d="M133 575v185l840 348v-164l-711 -278l711 -316v-164z" />
<glyph unicode="=" d="M133 391v144h840v-144h-840zM133 801v143h840v-143h-840z" />
<glyph unicode="&#x3e;" d="M133 186v164l711 316l-711 278v164l840 -348v-185z" />
<glyph unicode="?" horiz-adv-x="991" d="M113 1184q18 74 56 133t91 101t118.5 64.5t137.5 22.5q166 0 264.5 -87t98.5 -247q0 -74 -21.5 -127t-53.5 -96t-70 -76.5t-69.5 -68.5t-53 -74t-21.5 -88v-190h-168v219q0 57 21.5 101t53 82t68.5 71.5t69 70.5t53.5 80t21.5 101q0 37 -11.5 72.5t-35 63t-61.5 44 t-91 16.5q-92 0 -156.5 -60.5t-79.5 -152.5zM403 0v215h215v-215h-215z" />
<glyph unicode="@" horiz-adv-x="1884" d="M164 639q0 240 80 404.5t201.5 267t268 148.5t281.5 46q162 0 295 -46t228.5 -138t148.5 -232.5t53 -328.5q0 -102 -24.5 -201.5t-72.5 -179.5t-119.5 -129t-164.5 -49q-51 0 -89 15t-62.5 40t-37.5 56.5t-17 64.5q-29 -70 -93.5 -121t-175.5 -51q-55 0 -106 19.5 t-91 64.5t-63.5 115.5t-23.5 173.5q0 166 37.5 276.5t96 177t128 94t135.5 27.5q55 0 96 -17.5t74 -45.5l20 49h125l-63 -529q-2 -10 -4 -28.5t-3 -37t-2 -35.5t-1 -26q0 -92 28.5 -133t85.5 -41q43 0 84 29t73 85t50.5 140t18.5 195q0 301 -141.5 466t-422.5 165 q-111 0 -229.5 -44.5t-216.5 -135.5t-160.5 -233t-62.5 -339q0 -174 49 -305t133 -218t194.5 -131t235.5 -44q102 0 169 9t132 21v-119q-63 -14 -140 -25t-177 -11q-160 0 -298.5 55t-240.5 160.5t-160.5 259t-58.5 350.5zM739 563q0 -74 13.5 -121t37 -73.5t53 -36.5 t60.5 -10q61 0 108.5 50t63.5 183l53 449q-20 18 -44.5 27t-67.5 9q-47 0 -95.5 -19.5t-89 -72.5t-66.5 -146.5t-26 -238.5z" />
<glyph unicode="A" horiz-adv-x="1132" d="M20 0l443 1475h209l440 -1475h-184l-107 383h-520l-108 -383h-173zM338 516h446l-219 799z" />
<glyph unicode="B" horiz-adv-x="1144" d="M184 0v1475h346q229 0 347 -97.5t118 -283.5q0 -117 -62.5 -201t-160.5 -115q55 -12 104.5 -39.5t86 -72.5t58 -109.5t21.5 -148.5q0 -119 -45 -197t-118.5 -125t-165.5 -66.5t-187 -19.5h-342zM358 133h199q61 0 115.5 13.5t96.5 44t66.5 84t24.5 133.5q0 70 -15.5 125 t-50 95t-91 61.5t-136.5 21.5h-209v-578zM358 836h201q141 0 201.5 67.5t60.5 190.5q0 131 -74.5 195.5t-199.5 64.5h-189v-518z" />
<glyph unicode="C" horiz-adv-x="1191" d="M143 737q0 229 47.5 379t121 236t164.5 119.5t179 33.5q96 0 169 -29.5t124 -76.5t84 -106.5t49 -116.5l-168 -23q-31 98 -91 156.5t-167 58.5q-70 0 -130 -29.5t-105 -102.5t-70.5 -193.5t-25.5 -305.5q0 -182 26.5 -303t70.5 -192.5t103.5 -102t126.5 -30.5 q111 0 177.5 59t101.5 170l170 -16q-49 -158 -157.5 -255.5t-295.5 -97.5q-82 0 -171 33t-162.5 118t-122 234.5t-48.5 382.5z" />
<glyph unicode="D" horiz-adv-x="1251" d="M184 0v1475h301q109 0 219.5 -29t200.5 -110t146.5 -225t56.5 -374q0 -231 -62.5 -374.5t-155.5 -224.5t-202.5 -109.5t-204.5 -28.5h-299zM358 135h136q80 0 158.5 23.5t140 89t100.5 183.5t39 306t-41 307t-105.5 185.5t-142.5 91.5t-154 25h-131v-1211z" />
<glyph unicode="E" horiz-adv-x="1024" d="M184 0v1475h717v-140h-543v-518h482v-135h-482v-543h543v-139h-717z" />
<glyph unicode="F" horiz-adv-x="962" d="M184 0v1475h697v-140h-523v-557h461v-139h-461v-639h-174z" />
<glyph unicode="G" horiz-adv-x="1224" d="M143 739q0 236 50.5 385.5t127 234.5t168 116.5t173.5 31.5q84 0 150.5 -24.5t117.5 -66.5t85 -96t52 -116l-168 -24q-23 80 -77 137t-160 57q-61 0 -122 -28.5t-110 -101.5t-78.5 -195.5t-29.5 -309.5q0 -182 25.5 -303t68.5 -194.5t100 -104.5t123 -31q188 0 272 127 v441h-252v139h408v-813h-102l-27 104q-57 -68 -136 -100.5t-167 -32.5q-86 0 -173 32t-158 118t-116 235.5t-45 382.5z" />
<glyph unicode="H" horiz-adv-x="1269" d="M184 0v1475h174v-660h553v660h174v-1475h-174v676h-553v-676h-174z" />
<glyph unicode="I" horiz-adv-x="542" d="M184 0v1475h174v-1475h-174z" />
<glyph unicode="J" horiz-adv-x="663" d="M31 0v141q35 -10 81 -18t74 -8q35 0 59.5 8t40 32.5t22.5 68.5t7 118v1133h174v-1137q0 -197 -69.5 -282t-212.5 -85q-53 0 -96 8.5t-80 20.5z" />
<glyph unicode="K" horiz-adv-x="1112" d="M184 0v1475h174v-644l463 644h195l-514 -703l579 -772h-213l-510 686v-686h-174z" />
<glyph unicode="L" horiz-adv-x="966" d="M184 0v1475h174v-1323h568v-152h-742z" />
<glyph unicode="M" horiz-adv-x="1529" d="M184 0v1475h228l368 -1242l340 1242h226v-1475h-172v1165l-322 -1165h-154l-348 1165v-1165h-166z" />
<glyph unicode="N" horiz-adv-x="1230" d="M184 0v1475h234l467 -1221v1221h162v-1475h-228l-469 1235v-1235h-166z" />
<glyph unicode="O" horiz-adv-x="1347" d="M143 737q0 215 45 361.5t119 236.5t169 130t198 40q100 0 196.5 -40t170 -130t118.5 -236.5t45 -361.5t-45 -361.5t-118.5 -236.5t-170 -130t-196.5 -40q-102 0 -197.5 40t-169.5 130t-119 236.5t-45 361.5zM322 737q0 -313 87 -474t265 -161t265 161t87 474t-87 474 t-265 161t-265 -161t-87 -474z" />
<glyph unicode="P" horiz-adv-x="1081" d="M184 0v1475h316q109 0 202 -28t161.5 -86t107.5 -147.5t39 -212.5q0 -121 -41 -207.5t-112 -143t-165 -83t-200 -26.5h-134v-541h-174zM358 674h138q162 0 248.5 80t86.5 247q0 160 -87 250t-240 90h-146v-667z" />
<glyph unicode="Q" horiz-adv-x="1347" d="M143 737q0 215 45 361.5t119 236.5t169 130t198 40q100 0 196.5 -40t170 -130t118.5 -236.5t45 -361.5q0 -170 -29.5 -299t-81 -219t-120 -145.5t-148.5 -77.5l334 -12v-160l-516 78v69q-98 6 -188 49t-159 133.5t-111 233.5t-42 350zM322 737q0 -313 87 -474t265 -161 t265 161t87 474t-87 474t-265 161t-265 -161t-87 -474z" />
<glyph unicode="R" horiz-adv-x="1140" d="M184 0v1475h301q109 0 203 -27t164 -83t109.5 -142t39.5 -203q0 -84 -20 -148.5t-55 -113.5t-82 -84t-101 -58l367 -616h-207l-330 578h-215v-578h-174zM358 711h138q147 0 237 76.5t90 232.5t-90 238.5t-244 82.5h-131v-630z" />
<glyph unicode="S" horiz-adv-x="1122" d="M92 299l162 29q12 -41 33.5 -80t57.5 -70t89 -50t127 -19q49 0 96.5 15t84 47t60 82t23.5 120q0 80 -19.5 130t-61.5 88t-109.5 68.5t-161.5 69.5q-166 68 -244.5 165t-78.5 239q0 78 28.5 146.5t81.5 118.5t130 78.5t173 28.5q92 0 164 -26.5t124 -70.5t87 -99.5 t53 -112.5l-153 -29q-25 80 -92.5 141.5t-178.5 61.5q-49 0 -94 -13.5t-79 -41t-54.5 -70.5t-20.5 -100q0 -53 14.5 -93t48.5 -73t89 -62.5t137 -60.5q80 -31 150.5 -67.5t124 -91t85 -130t31.5 -184.5q0 -84 -31.5 -160t-89 -132t-138.5 -89t-181 -33q-106 0 -187 31 t-138.5 79t-92.5 106.5t-49 113.5z" />
<glyph unicode="T" horiz-adv-x="972" d="M51 1323v152h871v-152h-351v-1323h-174v1323h-346z" />
<glyph unicode="U" horiz-adv-x="1247" d="M174 457v1018h174v-1037q0 -154 64.5 -241.5t214.5 -87.5t215 88t65 241v1037h166v-1018q0 -242 -115.5 -365t-332.5 -123t-334 123t-117 365z" />
<glyph unicode="V" horiz-adv-x="1075" d="M20 1475h181l342 -1350l352 1350h160l-398 -1475h-233z" />
<glyph unicode="W" horiz-adv-x="1554" d="M51 1475h178l195 -1282l260 1282h223l244 -1278l192 1278h160l-246 -1475h-208l-261 1278l-268 -1278h-223z" />
<glyph unicode="X" horiz-adv-x="1126" d="M72 0l403 762l-366 713h194l272 -549l285 549h180l-385 -707l400 -768h-199l-295 598l-311 -598h-178z" />
<glyph unicode="Y" horiz-adv-x="1048" d="M20 1475h191l321 -705l326 705h170l-414 -885v-590h-172v590z" />
<glyph unicode="Z" horiz-adv-x="1024" d="M82 0v154l659 1183h-612v138h793v-148l-658 -1190h637v-137h-819z" />
<glyph unicode="[" horiz-adv-x="696" d="M154 -348v2007h415v-139h-256v-1729h256v-139h-415z" />
<glyph unicode="\" horiz-adv-x="696" d="M133 1475h156l428 -1659h-156z" />
<glyph unicode="]" horiz-adv-x="696" d="M127 -209h256v1729h-256v139h416v-2007h-416v139z" />
<glyph unicode="^" horiz-adv-x="1024" d="M82 819l342 656h184l334 -656h-172l-254 529l-262 -529h-172z" />
<glyph unicode="_" horiz-adv-x="983" d="M-4 -106h991v-140h-991v140z" />
<glyph unicode="`" horiz-adv-x="552" d="M61 1505h232l199 -280h-146z" />
<glyph unicode="a" horiz-adv-x="1036" d="M82 295q0 92 37 158.5t97 112.5t139 73t163 39l191 29v75q0 47 -10.5 90t-34 75t-62.5 50.5t-96 18.5q-88 0 -145.5 -49t-75.5 -123l-162 28q45 117 144.5 191t248.5 74q172 0 264 -94.5t92 -280.5v-762h-110l-37 131q-47 -66 -124 -108.5t-200 -42.5q-51 0 -107 15 t-103.5 51t-78 96.5t-30.5 152.5zM252 307q0 -104 55 -150t144 -46q82 0 145 32.5t113 85.5v361l-148 -25q-147 -25 -228 -83t-81 -175z" />
<glyph unicode="b" horiz-adv-x="1081" d="M164 0v1505h164v-499q51 61 120.5 96t161.5 35q70 0 131.5 -31t108.5 -99.5t74.5 -177t27.5 -264.5q0 -287 -107.5 -436t-299.5 -149q-78 0 -134.5 29.5t-95.5 76.5l-18 -86h-133zM328 190q37 -39 83 -65.5t101 -26.5q59 0 108.5 26t85 83t55 148t19.5 220 q0 123 -17.5 205t-49 131.5t-75.5 69.5t-95 20q-63 0 -116.5 -33.5t-98.5 -80.5v-697z" />
<glyph unicode="c" horiz-adv-x="1042" d="M129 555q0 158 38 268.5t99.5 180t139 101.5t157.5 32q92 0 160 -29t116 -74t75.5 -101t39.5 -112l-163 -24q-20 92 -69.5 149.5t-154.5 57.5q-55 0 -104 -25t-85 -79t-56.5 -140t-20.5 -211t21.5 -209t56.5 -135t82 -72.5t100 -21.5q51 0 92 17t70 47t46 68t26 81 l166 -21q-14 -59 -45 -116.5t-81.5 -103.5t-120 -74.5t-157.5 -28.5q-72 0 -147.5 25.5t-138 90t-102.5 176t-40 283.5z" />
<glyph unicode="d" horiz-adv-x="1091" d="M129 555q0 287 110.5 434.5t303.5 147.5q72 0 126 -23.5t95 -64.5v456h164v-1505h-119l-35 125q-51 -70 -125 -107.5t-172 -37.5q-70 0 -132 31.5t-110.5 100t-77 178t-28.5 265.5zM301 545q0 -123 18.5 -205t51 -132t77 -71.5t97.5 -21.5q63 0 117.5 34.5t101.5 83.5 v699q-39 35 -86 59.5t-103 24.5q-59 0 -109 -24.5t-87 -81t-57.5 -146.5t-20.5 -219z" />
<glyph unicode="e" horiz-adv-x="1093" d="M129 553q0 168 38 279.5t98.5 179t136 96.5t153.5 29q211 0 318.5 -145.5t107.5 -465.5h-684q2 -129 26.5 -209.5t63.5 -127t88 -62.5t103 -16q51 0 91 15t68.5 39.5t48 55.5t29.5 62l143 -31q-18 -53 -52 -102.5t-82 -87t-112.5 -60t-144.5 -22.5q-78 0 -155.5 27.5 t-141 93t-102.5 176t-39 276.5zM299 651h516q-4 178 -68.5 270.5t-181.5 92.5q-106 0 -178 -85t-88 -278z" />
<glyph unicode="f" horiz-adv-x="612" d="M41 973v133h164v133q0 59 15.5 110.5t48 90.5t82.5 60.5t122 21.5q102 0 180 -23v-133q-39 10 -77.5 14t-69.5 4q-68 0 -102.5 -30.5t-34.5 -102.5v-145h237v-133h-237v-973h-164v973h-164z" />
<glyph unicode="g" horiz-adv-x="1040" d="M82 -113q0 92 44 152.5t116 97.5q-51 29 -70.5 69t-19.5 87q0 59 29.5 101t74.5 67q-66 47 -109 120.5t-43 178.5q0 106 40 179t99.5 117t131 62.5t137.5 18.5q47 0 88 -9v64l358 41v-152l-247 11q86 -41 142 -122t56 -210q0 -96 -35.5 -167t-93 -117t-129 -68.5 t-141.5 -22.5q-96 0 -188 39q-33 -27 -33 -68q0 -18 3 -37.5t24.5 -36t66.5 -28.5t129 -18q104 -6 188 -26t144.5 -56.5t93.5 -95t33 -144.5q0 -63 -30 -120.5t-88 -101.5t-146.5 -69.5t-204.5 -25.5q-203 0 -311.5 79.5t-108.5 210.5zM246 -86q0 -39 12 -76t42 -65.5 t78 -46t122 -17.5q88 0 145 18.5t91 47t47.5 63.5t13.5 66q0 39 -13.5 68.5t-50.5 52t-104.5 37t-177.5 22.5q-29 2 -56.5 5t-54.5 11q-41 -35 -67.5 -79t-26.5 -107zM268 760q0 -117 65.5 -186.5t176.5 -69.5t173 69.5t62 186.5q0 123 -63.5 190.5t-173.5 67.5 q-111 0 -175.5 -70.5t-64.5 -187.5z" />
<glyph unicode="h" horiz-adv-x="1122" d="M164 0v1505h164v-528q66 86 146.5 123t156.5 37q162 0 244.5 -101.5t82.5 -318.5v-717h-163v725q0 150 -50.5 214.5t-160.5 64.5q-76 0 -140.5 -45.5t-115.5 -106.5v-852h-164z" />
<glyph unicode="i" horiz-adv-x="491" d="M152 1307v198h188v-198h-188zM164 0v1106h164v-1106h-164z" />
<glyph unicode="j" horiz-adv-x="491" d="M-90 -182q27 -6 60.5 -11.5t58.5 -5.5q72 0 103.5 35t31.5 135v1135h164v-1155q0 -127 -63.5 -206t-203.5 -79q-33 0 -74.5 6t-76.5 17v129zM152 1307v198h188v-198h-188z" />
<glyph unicode="k" horiz-adv-x="1034" d="M164 0v1505h164v-860l405 461h213l-440 -481l508 -625h-205l-481 584v-584h-164z" />
<glyph unicode="l" horiz-adv-x="491" d="M164 0v1505h164v-1505h-164z" />
<glyph unicode="m" horiz-adv-x="1689" d="M164 0v1106h119l28 -131q66 88 151 125t156 37q205 0 271 -176q61 96 150 136t180 40q156 0 231.5 -101.5t75.5 -318.5v-717h-164v725q0 150 -43 214.5t-148 64.5q-80 0 -143 -46.5t-110 -109.5q4 -29 6 -62.5t2 -68.5v-717h-164v725q0 150 -43 214.5t-148 64.5 q-76 0 -136 -42t-107 -102v-860h-164z" />
<glyph unicode="n" horiz-adv-x="1122" d="M164 0v1106h119l30 -135q68 90 156 128t162 38q162 0 244.5 -101.5t82.5 -318.5v-717h-163v725q0 150 -50.5 214.5t-160.5 64.5q-78 0 -141.5 -44.5t-114.5 -105.5v-854h-164z" />
<glyph unicode="o" horiz-adv-x="1157" d="M129 553q0 170 41 282.5t105.5 179t145.5 94.5t159 28t157.5 -27t144 -93.5t105.5 -179t41 -284.5t-41 -282.5t-105.5 -175t-144.5 -90t-157 -25.5q-78 0 -159 25.5t-145.5 91t-105.5 176t-41 280.5zM301 553q0 -233 77 -341t204 -108q129 0 202.5 105.5t73.5 343.5 q0 236 -78 347.5t-200 111.5q-121 0 -200 -113t-79 -346z" />
<glyph unicode="p" horiz-adv-x="1081" d="M164 -348v1454h119l28 -113q51 70 126 107t173 37q70 0 131.5 -31t108.5 -99.5t74.5 -177t27.5 -264.5q0 -287 -107.5 -436t-299.5 -149q-141 0 -217 86v-414h-164zM328 182q35 -35 80 -59.5t104 -24.5t108.5 26t85 83t55 148t19.5 220q0 123 -17.5 205t-49 131.5 t-75.5 69.5t-95 20q-63 0 -116.5 -33.5t-98.5 -80.5v-705z" />
<glyph unicode="q" horiz-adv-x="1122" d="M129 551q0 287 110.5 436.5t303.5 149.5q92 0 157.5 -40t106.5 -106l39 115h112v-1454h-163v493q-51 -78 -128 -121.5t-190 -43.5q-70 0 -132 30.5t-110.5 99t-77 177t-28.5 264.5zM301 541q0 -123 18.5 -205t51 -131t77 -69.5t97.5 -20.5q74 0 137 46t113 105v633 q-41 43 -95.5 80t-124.5 37q-59 0 -109 -25.5t-87 -82t-57.5 -147.5t-20.5 -220z" />
<glyph unicode="r" horiz-adv-x="679" d="M164 0v1106h119l36 -162q78 188 244 189q23 0 43.5 -2.5t32.5 -6.5v-159q-18 4 -36.5 7t-43.5 3q-41 0 -75.5 -17.5t-63.5 -47t-51.5 -69.5t-40.5 -83v-758h-164z" />
<glyph unicode="s" horiz-adv-x="935" d="M72 211l153 45q29 -66 91.5 -103.5t144.5 -37.5t143.5 46t61.5 138q0 53 -25 90t-64.5 61.5t-90 42t-101.5 33.5q-147 45 -211.5 118t-64.5 183q0 76 28.5 133.5t77.5 96.5t112.5 59.5t133.5 20.5q74 0 132 -18.5t102 -51.5t75 -75t47 -89l-147 -45q-18 63 -68.5 107.5 t-142.5 44.5q-37 0 -70 -10.5t-59.5 -30t-42 -50t-15.5 -73.5t16.5 -73t49.5 -51.5t84 -38.5t119 -38q135 -41 212.5 -117.5t77.5 -212.5q0 -76 -26.5 -137t-75.5 -105t-118.5 -68.5t-153.5 -24.5q-143 0 -242.5 63.5t-142.5 167.5z" />
<glyph unicode="t" horiz-adv-x="673" d="M41 973v133h166l12 266h150v-266h237v-133h-237v-705q0 -72 26.5 -107.5t89.5 -35.5q31 0 59.5 4t67.5 14v-133q-37 -10 -71.5 -16t-81.5 -6q-135 0 -194.5 77.5t-59.5 206.5v701h-164z" />
<glyph unicode="u" horiz-adv-x="1097" d="M164 385v721h164v-725q0 -80 14 -131t42 -82t64.5 -43t83.5 -12q82 0 139.5 40t98.5 103v850h164v-1106h-113l-37 139q-53 -82 -125.5 -120.5t-158.5 -38.5q-154 0 -245 96t-91 309z" />
<glyph unicode="v" horiz-adv-x="952" d="M20 1106h177l280 -995l289 995h166l-336 -1106h-244z" />
<glyph unicode="w" horiz-adv-x="1474" d="M41 1106h168l213 -932l217 932h211l215 -928l207 928h162l-271 -1106h-205l-219 922l-217 -922h-211z" />
<glyph unicode="x" horiz-adv-x="1024" d="M41 0l371 582l-344 524h196l244 -391l240 391h167l-321 -514l389 -592h-201l-284 455l-283 -455h-174z" />
<glyph unicode="y" horiz-adv-x="937" d="M20 1106h175l294 -997l273 997h156l-320 -1135q-23 -76 -45.5 -133t-54 -95t-78.5 -57.5t-121 -19.5q-59 0 -133 19v129q35 -8 65.5 -12.5t63.5 -4.5q74 0 102.5 49.5t53.5 153.5h-78z" />
<glyph unicode="z" horiz-adv-x="919" d="M82 0v168l565 799h-526v139h696v-168l-557 -797h537v-141h-715z" />
<glyph unicode="{" horiz-adv-x="696" d="M70 580v153q74 0 117.5 41t43.5 139v404q0 174 87.5 258t289.5 84v-123q-123 0 -173 -40t-50 -148v-390q0 -135 -42 -203.5t-120 -97.5q78 -29 120 -98.5t42 -204.5v-391q0 -109 50 -148.5t173 -39.5v-123q-203 0 -290 84t-87 258v405q0 98 -43.5 139.5t-117.5 41.5z" />
<glyph unicode="|" horiz-adv-x="655" d="M244 -246v1884h168v-1884h-168z" />
<glyph unicode="}" horiz-adv-x="696" d="M88 -225q123 0 173 40t50 148v391q0 135 42 205t120 98q-78 29 -120 97.5t-42 203.5v390q0 109 -50 148.5t-173 39.5v123q203 0 290 -84t87 -258v-404q0 -98 44 -139t118 -41v-153q-74 0 -118 -41t-44 -140v-405q0 -174 -87 -258t-290 -84v123z" />
<glyph unicode="~" horiz-adv-x="1146" d="M154 545v160q39 31 106.5 56t138.5 25q63 0 110.5 -17t88.5 -36.5t81 -37t89 -17.5q74 0 127 24.5t98 63.5v-160q-39 -31 -106.5 -56.5t-138.5 -25.5q-63 0 -110.5 17.5t-89.5 37t-82 37t-89 17.5q-74 0 -126 -24.5t-97 -63.5z" />
<glyph horiz-adv-x="1024" d="M82 0v154l659 1183h-612v138h793v-148l-658 -1190h637v-137h-819zM217 1808h185l139 -104l139 104h185l-244 -239h-160z" />
<glyph unicode="&#x17d;" horiz-adv-x="1024" d="M82 0v154l659 1183h-612v138h793v-148l-658 -1190h637v-137h-819zM217 1808h185l139 -104l139 104h185l-244 -239h-160z" />
<glyph horiz-adv-x="919" d="M82 0v168l565 799h-526v139h696v-168l-557 -797h537v-141h-715zM170 1505h175l149 -133l150 133h174l-250 -278h-148z" />
<glyph unicode="&#x17e;" horiz-adv-x="919" d="M82 0v168l565 799h-526v139h696v-168l-557 -797h537v-141h-715zM170 1505h175l149 -133l150 133h174l-250 -278h-148z" />
<glyph unicode="&#xa1;" horiz-adv-x="552" d="M174 901v205h205v-205h-205zM188 -369l21 983h143l21 -983h-185z" />
<glyph unicode="&#xa2;" d="M135 555q0 139 31 242.5t81 173t115.5 108.5t137.5 51v283h147v-283q74 -12 127 -42.5t90 -73.5t60.5 -93.5t36.5 -99.5l-164 -24q-20 92 -69.5 149.5t-154.5 57.5q-55 0 -104 -25t-85 -79t-56.5 -140t-20.5 -211t21.5 -209t56.5 -135t82 -72.5t100 -21.5q51 0 92 17 t70 47t46.5 68t25.5 81l166 -21q-12 -53 -38 -104.5t-66 -94.5t-93 -73.5t-123 -42.5v-264h-147v262q-68 8 -132.5 40.5t-116.5 98t-84 171t-32 259.5z" />
<glyph unicode="&#xa3;" d="M123 0v135h14q72 4 119 52.5t47 152.5v385h-160v123h160v174q0 113 31 194.5t81 135t116.5 78t140.5 24.5q143 0 228 -72.5t116 -183.5l-156 -37q-14 72 -56 119t-130 47q-92 0 -146.5 -68.5t-54.5 -236.5v-174h401v-123h-401v-373q0 -76 -24.5 -130t-77.5 -87h596v-135 h-844z" />
<glyph unicode="&#xa4;" horiz-adv-x="1228" d="M84 260l131 131q-39 57 -61.5 132t-22.5 173q0 92 20.5 167t57.5 134l-125 127l98 99l119 -119q68 57 149.5 85t161.5 28t162 -29t150 -88l123 123l98 -99l-131 -131q35 -59 56.5 -132t21.5 -165q0 -98 -21.5 -170.5t-60.5 -132.5l135 -133l-98 -98l-129 129 q-68 -53 -148 -79t-158 -26t-157.5 25t-145.5 78l-127 -127zM274 696q0 -186 95.5 -285.5t244.5 -99.5q150 0 242 99.5t92 285.5q0 92 -24.5 165t-68.5 123t-106.5 78t-136.5 28t-136 -28t-107 -78t-70 -123t-25 -165z" />
<glyph unicode="&#xa5;" d="M74 1434h184l305 -701l309 701h168l-350 -738h252v-123h-305v-163h305v-123h-305v-287h-154v287h-319v123h319v163h-319v121h264z" />
<glyph unicode="&#xa6;" horiz-adv-x="655" d="M244 -246v778h168v-778h-168zM244 860v778h168v-778h-168z" />
<glyph unicode="&#xa7;" d="M166 631q0 94 49 157.5t127 100.5q-55 35 -94 98.5t-39 161.5q0 76 29.5 132t80 95t115 58.5t133.5 19.5q68 0 126.5 -18.5t103.5 -51t76.5 -74.5t48.5 -89l-138 -43q-18 63 -74.5 108t-148.5 45q-37 0 -71.5 -10t-62.5 -29.5t-44 -50.5t-16 -74q0 -92 65.5 -139 t190.5 -78q141 -35 229 -114.5t88 -217.5q0 -98 -50 -160.5t-128 -99.5q57 -35 96 -97t39 -161q0 -76 -30.5 -133t-81 -95t-115 -57.5t-133.5 -19.5q-68 0 -125.5 18.5t-103.5 51.5t-77.5 75t-48.5 89l137 43q18 -63 76 -108.5t150 -45.5q37 0 71.5 10.5t62.5 29.5t44 50 t16 74q0 92 -65.5 139t-190.5 78q-141 35 -229 115t-88 217zM328 647q0 -59 23.5 -98t63.5 -63.5t93 -41t115 -32.5q61 18 108 65t47 125q0 59 -23.5 97t-63.5 62.5t-94 42t-114 34.5q-61 -20 -108 -66.5t-47 -124.5z" />
<glyph unicode="&#xa8;" horiz-adv-x="737" d="M61 1300v185h195v-185h-195zM481 1300v185h195v-185h-195z" />
<glyph unicode="&#xa9;" horiz-adv-x="1726" d="M121 737q0 203 65.5 347.5t171 238.5t238.5 138t266 44t266.5 -44t239 -138t171 -238.5t65.5 -347.5t-65.5 -347t-171 -238.5t-239 -138.5t-266.5 -44t-266 44t-238.5 138.5t-171 238.5t-65.5 347zM260 737q0 -166 51 -289.5t135 -204.5t193 -122t223 -41q115 0 223.5 41 t192.5 122t135 204.5t51 289.5t-51 290t-135 205t-192.5 122t-223.5 41t-223.5 -41t-192.5 -122t-135 -205t-51 -290zM571 739q0 127 28 209t71 129t96 65.5t102 18.5q61 0 106.5 -18.5t77 -49t51 -69.5t30.5 -80l-132 -18q-12 51 -39.5 91t-95.5 40q-31 0 -58.5 -15.5 t-50 -52.5t-35.5 -97.5t-13 -152.5t14 -152.5t37.5 -96t52.5 -51t59 -15.5q72 0 102 42t42 97l129 -18q-10 -47 -31.5 -88t-56.5 -72t-84 -49.5t-113 -18.5q-47 0 -97 17.5t-93 64.5t-71 129t-28 211z" />
<glyph unicode="&#xaa;" horiz-adv-x="972" d="M156 864q0 80 29.5 133.5t75.5 87t102.5 50t109.5 22.5l172 23v73q0 25 -8 50.5t-24.5 46t-43 34t-65.5 13.5q-49 0 -93 -30t-63 -85l-151 18q29 86 110.5 145.5t210.5 59.5q125 0 207 -69.5t82 -210.5v-574h-105l-38 101q-41 -51 -101.5 -82t-148.5 -31 q-111 0 -184.5 60.5t-73.5 164.5zM195 0v143h624v-143h-624zM317 885q0 -41 15.5 -66.5t38 -41t51.5 -21.5t55 -6q55 0 96 23.5t72 57.5v246l-119 -16q-94 -12 -151.5 -50t-57.5 -126z" />
<glyph unicode="&#xab;" horiz-adv-x="1003" d="M123 668l239 419h132l-189 -425l168 -455h-131zM489 668l240 419h131l-188 -425l168 -455h-131z" />
<glyph unicode="&#xac;" d="M133 590v143h840v-444h-150v301h-690z" />
<glyph unicode="&#xad;" horiz-adv-x="870" d="M123 588v147h625v-147h-625z" />
<glyph unicode="&#xae;" horiz-adv-x="1257" d="M143 1010q0 133 45 227t116 153.5t157 87t168 27.5t168 -27.5t156.5 -87t115.5 -153.5t45 -227t-45 -227.5t-115.5 -154t-156.5 -87t-168 -27.5t-168 27.5t-157 87t-116 154t-45 227.5zM264 1010q0 -109 31 -183.5t82 -122t116.5 -69t135.5 -21.5t135 21.5t116.5 69 t82 122t30.5 183.5q0 106 -30.5 182t-82 123t-117 68.5t-134.5 21.5q-70 0 -135.5 -21.5t-116.5 -68.5t-82 -123t-31 -182zM475 752v522h152q78 0 131 -41t53 -121q0 -53 -25.5 -90t-68.5 -57l117 -213h-119l-103 190h-34v-190h-103zM578 1026h47q35 0 56 23.5t21 62.5 q0 37 -21.5 58.5t-59.5 21.5h-43v-166z" />
<glyph unicode="&#xaf;" horiz-adv-x="675" d="M61 1323v141h553v-141h-553z" />
<glyph unicode="&#xb0;" horiz-adv-x="727" d="M82 1159q0 72 23.5 127t62.5 92t90 56.5t107 19.5q55 0 106 -19.5t90 -56.5t61.5 -92t22.5 -127t-22.5 -126t-61.5 -91t-90 -55.5t-106 -18.5t-106.5 18.5t-90.5 55.5t-62.5 91t-23.5 126zM221 1159q0 -86 38 -135t106 -49t105.5 49t37.5 135t-38 137.5t-105 51.5 q-68 0 -106 -51.5t-38 -137.5z" />
<glyph unicode="&#xb1;" d="M133 0v143h840v-143h-840zM133 590v143h340v334h160v-334h340v-143h-340v-299h-160v299h-340z" />
<glyph unicode="&#xb2;" horiz-adv-x="696" d="M82 1458q23 86 94.5 143.5t181.5 57.5q51 0 97.5 -13.5t81 -42t56 -73.5t21.5 -109q0 -78 -52 -144.5t-118 -131.5l-161 -162h327v-123h-514v123l271 274q33 33 62.5 77t29.5 93q0 43 -24.5 80t-88.5 37q-49 0 -79.5 -33.5t-39.5 -72.5z" />
<glyph unicode="&#xb3;" horiz-adv-x="696" d="M74 1053l145 18q8 -41 38 -75.5t85 -34.5q63 0 93 37.5t30 99.5q0 76 -41 98.5t-96 22.5h-27v104h37q45 0 75.5 29.5t30.5 89.5q0 41 -28.5 71.5t-79.5 30.5q-49 0 -80 -29.5t-41 -78.5l-141 18q25 98 102.5 151.5t173.5 53.5q43 0 87 -12.5t79 -39t56.5 -67.5t21.5 -96 q0 -53 -31 -98.5t-94 -65.5q29 -6 56.5 -20.5t49 -37t34 -56t12.5 -79.5q0 -59 -21.5 -103t-59.5 -74.5t-88.5 -46t-107.5 -15.5q-109 0 -181.5 60.5t-88.5 144.5z" />
<glyph unicode="&#xb4;" horiz-adv-x="552" d="M61 1225l199 280h232l-287 -280h-144z" />
<glyph unicode="&#xb5;" horiz-adv-x="1097" d="M164 -348v1454h164v-725q0 -80 14 -132t42 -82t64.5 -42t83.5 -12q86 0 141.5 41t96.5 104v848h164v-1106h-113l-35 133q-47 -82 -113.5 -117.5t-152.5 -35.5q-59 0 -108.5 22.5t-83.5 56.5v-407h-164z" />
<glyph unicode="&#xb6;" horiz-adv-x="1126" d="M129 1100q0 113 33 178t80 100t99 45.5t91 10.5h156v-1434h-156v768q-39 0 -91 7t-99 40t-80 99.5t-33 185.5zM766 0v1434h156v-1434h-156z" />
<glyph unicode="&#xb7;" horiz-adv-x="645" d="M219 559v205h205v-205h-205z" />
<glyph unicode="&#xb8;" horiz-adv-x="571" d="M61 -442l62 92q23 -10 56.5 -18.5t64.5 -8.5q47 0 84 19.5t37 74.5q0 49 -52.5 71t-128.5 32l41 221h127l-10 -145q86 -18 127 -69.5t41 -117.5q0 -92 -67.5 -147.5t-172.5 -55.5q-59 0 -114.5 14.5t-94.5 37.5z" />
<glyph unicode="&#xb9;" horiz-adv-x="696" d="M104 1376v150l187 112h149v-651h152v-127h-481v127h188v504z" />
<glyph unicode="&#xba;" horiz-adv-x="972" d="M143 1067q0 121 29 205t76 136t109.5 74.5t129.5 22.5q68 0 129.5 -22.5t109.5 -74.5t75.5 -136t27.5 -205t-27.5 -204t-74.5 -133t-109.5 -71.5t-130.5 -21.5t-130 21.5t-110 71.5t-76 133t-28 204zM178 0v143h621v-143h-621zM307 1067q0 -166 52.5 -240.5t129.5 -74.5 q78 0 128.5 74.5t50.5 240.5t-50.5 244t-130.5 78t-130 -78t-50 -244z" />
<glyph unicode="&#xbb;" horiz-adv-x="1003" d="M143 1087h131l240 -419l-219 -461h-131l168 455zM510 1087h131l240 -419l-219 -461h-132l168 455z" />
<glyph unicode="&#xbc;" horiz-adv-x="1720" d="M155 1173v150l187 112h149v-651h152v-127h-481v127h188v504zM1012 148v127l172 505h145l-180 -514h168l22 228h109v-228h115v-118h-115v-146h-135v146h-301zM323 -205l957 1864h176l-957 -1864h-176z" />
<glyph unicode="&#xbd;" horiz-adv-x="1720" d="M1045 600q23 86 94.5 143.5t181.5 57.5q51 0 97.5 -13.5t81 -42t56 -73.5t21.5 -109q0 -78 -52 -144.5t-118 -131.5l-161 -162h327v-123h-514v123l271 274q33 33 62.5 77t29.5 93q0 43 -24.5 80t-88.5 37q-49 0 -79.5 -33.5t-39.5 -72.5zM141 1173v150l187 112h149v-651 h152v-127h-481v127h188v504zM309 -205l957 1864h176l-957 -1864h-176z" />
<glyph unicode="&#xbe;" horiz-adv-x="1720" d="M152 850l145 18q8 -41 38 -75.5t85 -34.5q63 0 93 37.5t30 99.5q0 76 -41 98.5t-96 22.5h-27v104h37q45 0 75.5 29.5t30.5 89.5q0 41 -28.5 71.5t-79.5 30.5q-49 0 -80 -29.5t-41 -78.5l-141 18q25 98 102.5 151.5t173.5 53.5q43 0 87 -12.5t79 -39t56.5 -67.5t21.5 -96 q0 -53 -31 -98.5t-94 -65.5q29 -6 56.5 -20.5t49 -37t34 -56t12.5 -79.5q0 -59 -21.5 -103t-59.5 -74.5t-88.5 -46t-107.5 -15.5q-109 0 -181.5 60.5t-88.5 144.5zM1018 148v127l172 505h145l-180 -514h168l22 228h109v-228h115v-118h-115v-146h-135v146h-301zM330 -205 l957 1864h176l-957 -1864h-176z" />
<glyph unicode="&#xbf;" horiz-adv-x="991" d="M113 -66q0 74 21.5 127.5t53 96.5t69.5 76.5t69.5 68.5t53 73t21.5 89v190h168v-219q0 -57 -21.5 -101t-53 -82t-68.5 -72t-68.5 -70.5t-53 -80.5t-21.5 -100q0 -37 11 -72.5t34.5 -63t61.5 -44t91 -16.5q92 0 156.5 60.5t79.5 152.5l162 -25q-18 -74 -56.5 -133 t-91.5 -101t-118.5 -64.5t-137.5 -22.5q-166 0 -264 86.5t-98 246.5zM373 891v215h215v-215h-215z" />
<glyph unicode="&#xc0;" horiz-adv-x="1132" d="M20 0l443 1475h209l440 -1475h-184l-107 383h-520l-108 -383h-173zM338 516h446l-219 799zM266 1812h244l195 -239h-148z" />
<glyph unicode="&#xc1;" horiz-adv-x="1132" d="M20 0l443 1475h209l440 -1475h-184l-107 383h-520l-108 -383h-173zM338 516h446l-219 799zM428 1573l195 239h244l-291 -239h-148z" />
<glyph unicode="&#xc2;" horiz-adv-x="1132" d="M20 0l443 1475h209l440 -1475h-184l-107 383h-520l-108 -383h-173zM338 516h446l-219 799zM241 1573l244 239h160l244 -239h-185l-139 104l-139 -104h-185z" />
<glyph unicode="&#xc3;" horiz-adv-x="1132" d="M20 0l443 1475h209l440 -1475h-184l-107 383h-520l-108 -383h-173zM338 516h446l-219 799zM272 1575v145q45 33 92.5 51.5t90.5 18.5q49 0 80.5 -12.5t56.5 -26.5t49.5 -26.5t58.5 -12.5q35 0 78 20.5t88 55.5v-145q-45 -33 -88 -51.5t-86 -18.5q-49 0 -80.5 12.5 t-56.5 26.5t-49.5 26.5t-58.5 12.5q-35 0 -82.5 -20.5t-92.5 -55.5z" />
<glyph unicode="&#xc4;" horiz-adv-x="1132" d="M20 0l443 1475h209l440 -1475h-184l-107 383h-520l-108 -383h-173zM338 516h446l-219 799zM260 1608v184h195v-184h-195zM680 1608v184h195v-184h-195z" />
<glyph unicode="&#xc5;" horiz-adv-x="1132" d="M20 0l433 1444q-57 27 -91 79t-34 128q0 111 68.5 172t172.5 61t172 -58.5t68 -174.5q0 -78 -35 -130.5t-94 -78.5l432 -1442h-184l-107 383h-520l-108 -383h-173zM338 516h446l-219 799zM457 1651q0 -61 30.5 -95t81.5 -34t81 33.5t30 95.5q0 61 -29.5 97t-81.5 36 q-51 0 -81.5 -36t-30.5 -97z" />
<glyph unicode="&#xc6;" horiz-adv-x="1679" d="M20 0l564 1475h901v-134h-672l119 -528h543v-131h-514l120 -549h475v-133h-620l-82 383h-524l-137 -383h-173zM379 516h446l-163 782z" />
<glyph unicode="&#xc7;" horiz-adv-x="1191" d="M143 737q0 229 47.5 379t121 236t164.5 119.5t179 33.5q96 0 169 -29.5t124 -76.5t84 -106.5t49 -116.5l-168 -23q-31 98 -91 156.5t-167 58.5q-70 0 -130 -29.5t-105 -102.5t-70.5 -193.5t-25.5 -305.5q0 -182 26.5 -303t70.5 -192.5t103.5 -102t126.5 -30.5 q111 0 177.5 59t101.5 170l170 -16q-47 -147 -141.5 -240.5t-256.5 -110.5l-4 -75q86 -18 127 -69.5t41 -117.5q0 -92 -67.5 -147.5t-171.5 -55.5q-59 0 -114.5 14.5t-94.5 37.5l61 96q23 -10 56.5 -18.5t64.5 -8.5q47 0 84 17.5t37 72.5q0 49 -52.5 71t-127.5 32l28 155 q-76 12 -151.5 55.5t-137 131.5t-99.5 228t-38 347z" />
<glyph unicode="&#xc8;" horiz-adv-x="1024" d="M184 0v1475h717v-140h-543v-518h482v-135h-482v-543h543v-139h-717zM241 1812h244l195 -239h-148z" />
<glyph unicode="&#xc9;" horiz-adv-x="1024" d="M184 0v1475h717v-140h-543v-518h482v-135h-482v-543h543v-139h-717zM391 1579l195 239h244l-291 -239h-148z" />
<glyph unicode="&#xca;" horiz-adv-x="1024" d="M184 0v1475h717v-140h-543v-518h482v-135h-482v-543h543v-139h-717zM221 1573l244 239h160l244 -239h-185l-139 104l-139 -104h-185z" />
<glyph unicode="&#xcb;" horiz-adv-x="1024" d="M184 0v1475h717v-140h-543v-518h482v-135h-482v-543h543v-139h-717zM237 1608v184h195v-184h-195zM657 1608v184h195v-184h-195z" />
<glyph unicode="&#xcc;" horiz-adv-x="542" d="M184 0v1475h174v-1475h-174zM-9 1812h244l195 -239h-148z" />
<glyph unicode="&#xcd;" horiz-adv-x="542" d="M184 0v1475h174v-1475h-174zM114 1573l195 239h244l-291 -239h-148z" />
<glyph unicode="&#xce;" horiz-adv-x="542" d="M184 0v1475h174v-1475h-174zM-52 1573l244 239h160l244 -239h-185l-139 104l-139 -104h-185z" />
<glyph unicode="&#xcf;" horiz-adv-x="542" d="M184 0v1475h174v-1475h-174zM-33 1608v184h195v-184h-195zM387 1608v184h195v-184h-195z" />
<glyph unicode="&#xd0;" horiz-adv-x="1271" d="M61 719v133h144v623h301q109 0 219.5 -29t200.5 -110t146 -225t56 -374q0 -231 -62 -374.5t-155.5 -224.5t-203 -109.5t-203.5 -28.5h-299v719h-144zM379 135h135q80 0 159 23.5t140 89t100 183.5t39 306t-41 307t-105.5 185.5t-142 91.5t-153.5 25h-131v-494h377v-133 h-377v-584z" />
<glyph unicode="&#xd1;" horiz-adv-x="1230" d="M184 0v1475h234l467 -1221v1221h162v-1475h-228l-469 1235v-1235h-166zM325 1583v145q45 33 92.5 51.5t90.5 18.5q49 0 80.5 -12.5t56.5 -26.5t49.5 -26.5t58.5 -12.5q35 0 78 20.5t88 55.5v-145q-45 -33 -88 -51.5t-86 -18.5q-49 0 -80.5 12.5t-56.5 26.5t-49.5 26.5 t-58.5 12.5q-35 0 -82.5 -20.5t-92.5 -55.5z" />
<glyph unicode="&#xd2;" horiz-adv-x="1347" d="M143 737q0 215 45 361.5t119 236.5t169 130t198 40q100 0 196.5 -40t170 -130t118.5 -236.5t45 -361.5t-45 -361.5t-118.5 -236.5t-170 -130t-196.5 -40q-102 0 -197.5 40t-169.5 130t-119 236.5t-45 361.5zM322 737q0 -313 87 -474t265 -161t265 161t87 474t-87 474 t-265 161t-265 -161t-87 -474zM352 1812h244l195 -239h-148z" />
<glyph unicode="&#xd3;" horiz-adv-x="1347" d="M143 737q0 215 45 361.5t119 236.5t169 130t198 40q100 0 196.5 -40t170 -130t118.5 -236.5t45 -361.5t-45 -361.5t-118.5 -236.5t-170 -130t-196.5 -40q-102 0 -197.5 40t-169.5 130t-119 236.5t-45 361.5zM322 737q0 -313 87 -474t265 -161t265 161t87 474t-87 474 t-265 161t-265 -161t-87 -474zM553 1573l195 239h244l-291 -239h-148z" />
<glyph unicode="&#xd4;" horiz-adv-x="1347" d="M143 737q0 215 45 361.5t119 236.5t169 130t198 40q100 0 196.5 -40t170 -130t118.5 -236.5t45 -361.5t-45 -361.5t-118.5 -236.5t-170 -130t-196.5 -40q-102 0 -197.5 40t-169.5 130t-119 236.5t-45 361.5zM322 737q0 -313 87 -474t265 -161t265 161t87 474t-87 474 t-265 161t-265 -161t-87 -474zM350 1573l244 239h160l244 -239h-185l-139 104l-139 -104h-185z" />
<glyph unicode="&#xd5;" horiz-adv-x="1347" d="M143 737q0 215 45 361.5t119 236.5t169 130t198 40q100 0 196.5 -40t170 -130t118.5 -236.5t45 -361.5t-45 -361.5t-118.5 -236.5t-170 -130t-196.5 -40q-102 0 -197.5 40t-169.5 130t-119 236.5t-45 361.5zM322 737q0 -313 87 -474t265 -161t265 161t87 474t-87 474 t-265 161t-265 -161t-87 -474zM376 1579v145q45 33 92.5 51.5t90.5 18.5q49 0 80.5 -12.5t56.5 -26.5t49.5 -26.5t58.5 -12.5q35 0 78 20.5t88 55.5v-145q-45 -33 -88 -51.5t-86 -18.5q-49 0 -80.5 12.5t-56.5 26.5t-49.5 26.5t-58.5 12.5q-35 0 -82.5 -20.5t-92.5 -55.5z " />
<glyph unicode="&#xd6;" horiz-adv-x="1347" d="M143 737q0 215 45 361.5t119 236.5t169 130t198 40q100 0 196.5 -40t170 -130t118.5 -236.5t45 -361.5t-45 -361.5t-118.5 -236.5t-170 -130t-196.5 -40q-102 0 -197.5 40t-169.5 130t-119 236.5t-45 361.5zM322 737q0 -313 87 -474t265 -161t265 161t87 474t-87 474 t-265 161t-265 -161t-87 -474zM364 1608v184h195v-184h-195zM784 1608v184h195v-184h-195z" />
<glyph unicode="&#xd7;" d="M164 379l278 278l-278 279l110 111l279 -279l278 279l111 -111l-278 -279l278 -278l-111 -111l-278 279l-279 -279z" />
<glyph unicode="&#xd8;" horiz-adv-x="1347" d="M143 737q0 215 45 361.5t119 236.5t169 130t198 40q51 0 101 -9t97 -32l80 215h144l-107 -288q96 -86 155.5 -245t59.5 -409q0 -215 -45 -361.5t-118.5 -236.5t-170 -130t-196.5 -40q-106 0 -197 39l-80 -217h-143l106 291q-96 86 -156.5 244.5t-60.5 410.5zM322 737 q0 -348 106 -504l397 1098q-66 41 -151 41q-178 0 -265 -161t-87 -474zM520 143q72 -41 154 -41q178 0 265 161t87 474q0 338 -106 500z" />
<glyph unicode="&#xd9;" horiz-adv-x="1247" d="M174 457v1018h174v-1037q0 -154 64.5 -241.5t214.5 -87.5t215 88t65 241v1037h166v-1018q0 -242 -115.5 -365t-332.5 -123t-334 123t-117 365zM305 1812h244l195 -239h-148z" />
<glyph unicode="&#xda;" horiz-adv-x="1247" d="M174 457v1018h174v-1037q0 -154 64.5 -241.5t214.5 -87.5t215 88t65 241v1037h166v-1018q0 -242 -115.5 -365t-332.5 -123t-334 123t-117 365zM510 1573l195 239h244l-291 -239h-148z" />
<glyph unicode="&#xdb;" horiz-adv-x="1247" d="M174 457v1018h174v-1037q0 -154 64.5 -241.5t214.5 -87.5t215 88t65 241v1037h166v-1018q0 -242 -115.5 -365t-332.5 -123t-334 123t-117 365zM301 1569l244 239h160l244 -239h-185l-139 104l-139 -104h-185z" />
<glyph unicode="&#xdc;" horiz-adv-x="1247" d="M174 457v1018h174v-1037q0 -154 64.5 -241.5t214.5 -87.5t215 88t65 241v1037h166v-1018q0 -242 -115.5 -365t-332.5 -123t-334 123t-117 365zM319 1608v184h195v-184h-195zM739 1608v184h195v-184h-195z" />
<glyph unicode="&#xdd;" horiz-adv-x="1048" d="M20 1475h191l321 -705l326 705h170l-414 -885v-590h-172v590zM436 1573l195 239h244l-291 -239h-148z" />
<glyph unicode="&#xde;" horiz-adv-x="1153" d="M184 0v1475h174v-254h142q109 0 202 -28t161.5 -86t107.5 -149.5t39 -218.5q0 -125 -41 -214t-112 -145t-165 -83t-200 -27h-134v-270h-174zM358 403h138q162 0 248.5 78t86.5 258q0 174 -87 261t-240 87h-146v-684z" />
<glyph unicode="&#xdf;" horiz-adv-x="1175" d="M164 0v1092q0 106 28.5 188t81 136t125 82t158.5 28q166 0 257 -87t91 -237q0 -35 -7 -97.5t-42 -129.5q-74 -12 -118 -44t-44 -93q0 -31 9.5 -53.5t31 -43t56 -41t83.5 -47.5q86 -45 147.5 -120.5t61.5 -204.5q0 -88 -27.5 -153.5t-75.5 -108.5t-110.5 -64.5 t-130.5 -21.5q-66 0 -117 14t-90.5 37.5t-67.5 52.5t-44 57l143 66q20 -35 64.5 -64.5t111.5 -29.5q37 0 70 13t58.5 38.5t41 64.5t15.5 88q0 45 -14.5 78t-38 59.5t-55.5 47t-68 41.5q-41 23 -79 48t-67 58t-46 74t-17 94q0 59 17 101.5t46 72t66 48t75 30.5 q10 33 15.5 63.5t5.5 79.5q0 80 -54.5 134.5t-152.5 54.5q-111 0 -170 -74t-59 -197v-1130h-164z" />
<glyph unicode="&#xe0;" horiz-adv-x="1036" d="M82 295q0 92 37 158.5t97 112.5t139 73t163 39l191 29v75q0 47 -10.5 90t-34 75t-62.5 50.5t-96 18.5q-88 0 -145.5 -49t-75.5 -123l-162 28q45 117 144.5 191t248.5 74q172 0 264 -94.5t92 -280.5v-762h-110l-37 131q-47 -66 -124 -108.5t-200 -42.5q-51 0 -107 15 t-103.5 51t-78 96.5t-30.5 152.5zM252 307q0 -104 55 -150t144 -46q82 0 145 32.5t113 85.5v361l-148 -25q-147 -25 -228 -83t-81 -175zM192 1505h232l199 -280h-146z" />
<glyph unicode="&#xe1;" horiz-adv-x="1036" d="M82 295q0 92 37 158.5t97 112.5t139 73t163 39l191 29v75q0 47 -10.5 90t-34 75t-62.5 50.5t-96 18.5q-88 0 -145.5 -49t-75.5 -123l-162 28q45 117 144.5 191t248.5 74q172 0 264 -94.5t92 -280.5v-762h-110l-37 131q-47 -66 -124 -108.5t-200 -42.5q-51 0 -107 15 t-103.5 51t-78 96.5t-30.5 152.5zM252 307q0 -104 55 -150t144 -46q82 0 145 32.5t113 85.5v361l-148 -25q-147 -25 -228 -83t-81 -175zM411 1225l199 280h232l-287 -280h-144z" />
<glyph unicode="&#xe2;" horiz-adv-x="1036" d="M82 295q0 92 37 158.5t97 112.5t139 73t163 39l191 29v75q0 47 -10.5 90t-34 75t-62.5 50.5t-96 18.5q-88 0 -145.5 -49t-75.5 -123l-162 28q45 117 144.5 191t248.5 74q172 0 264 -94.5t92 -280.5v-762h-110l-37 131q-47 -66 -124 -108.5t-200 -42.5q-51 0 -107 15 t-103.5 51t-78 96.5t-30.5 152.5zM252 307q0 -104 55 -150t144 -46q82 0 145 32.5t113 85.5v361l-148 -25q-147 -25 -228 -83t-81 -175zM182 1227l250 278h148l250 -278h-174l-150 135l-149 -135h-175z" />
<glyph unicode="&#xe3;" horiz-adv-x="1036" d="M82 295q0 92 37 158.5t97 112.5t139 73t163 39l191 29v75q0 47 -10.5 90t-34 75t-62.5 50.5t-96 18.5q-88 0 -145.5 -49t-75.5 -123l-162 28q45 117 144.5 191t248.5 74q172 0 264 -94.5t92 -280.5v-762h-110l-37 131q-47 -66 -124 -108.5t-200 -42.5q-51 0 -107 15 t-103.5 51t-78 96.5t-30.5 152.5zM252 307q0 -104 55 -150t144 -46q82 0 145 32.5t113 85.5v361l-148 -25q-147 -25 -228 -83t-81 -175zM204 1276v145q45 33 92.5 51.5t90.5 18.5q49 0 80.5 -12.5t56.5 -26.5t49.5 -26.5t58.5 -12.5q35 0 78 20.5t88 55.5v-146 q-45 -33 -88 -51t-86 -18q-49 0 -80.5 12t-56.5 26.5t-49.5 27t-58.5 12.5q-35 0 -82.5 -20.5t-92.5 -55.5z" />
<glyph unicode="&#xe4;" horiz-adv-x="1036" d="M82 295q0 92 37 158.5t97 112.5t139 73t163 39l191 29v75q0 47 -10.5 90t-34 75t-62.5 50.5t-96 18.5q-88 0 -145.5 -49t-75.5 -123l-162 28q45 117 144.5 191t248.5 74q172 0 264 -94.5t92 -280.5v-762h-110l-37 131q-47 -66 -124 -108.5t-200 -42.5q-51 0 -107 15 t-103.5 51t-78 96.5t-30.5 152.5zM252 307q0 -104 55 -150t144 -46q82 0 145 32.5t113 85.5v361l-148 -25q-147 -25 -228 -83t-81 -175zM198 1300v185h195v-185h-195zM618 1300v185h195v-185h-195z" />
<glyph unicode="&#xe5;" horiz-adv-x="1036" d="M82 295q0 92 37 158.5t97 112.5t139 73t163 39l191 29v75q0 47 -10.5 90t-34 75t-62.5 50.5t-96 18.5q-88 0 -145.5 -49t-75.5 -123l-162 28q45 117 144.5 191t248.5 74q172 0 264 -94.5t92 -280.5v-762h-110l-37 131q-47 -66 -124 -108.5t-200 -42.5q-51 0 -107 15 t-103.5 51t-78 96.5t-30.5 152.5zM252 307q0 -104 55 -150t144 -46q82 0 145 32.5t113 85.5v361l-148 -25q-147 -25 -228 -83t-81 -175zM266 1425q0 111 69 172.5t173 61.5t172 -58.5t68 -175.5q0 -111 -67.5 -170t-172.5 -59q-104 0 -173 59t-69 170zM395 1425 q0 -61 31 -95t82 -34t81 34t30 95t-30 97.5t-81 36.5t-82 -36.5t-31 -97.5z" />
<glyph unicode="&#xe6;" horiz-adv-x="1656" d="M82 295q0 92 37 158.5t97 112.5t139 73t163 39l191 29v75q0 47 -10.5 89t-34 73t-62.5 49.5t-96 18.5q-88 0 -145.5 -48.5t-75.5 -121.5l-162 26q45 117 145.5 191t247.5 74q211 0 293 -162q57 92 137 129t172 37q211 0 318.5 -145.5t107.5 -465.5h-684 q2 -129 26.5 -209.5t63.5 -127t88 -62.5t103 -16q51 0 91 15t68.5 39.5t48 55.5t29.5 62l144 -31q-18 -53 -52 -102.5t-82.5 -87t-113 -60t-144.5 -22.5q-100 0 -191 45t-153 159q-25 -41 -58.5 -77.5t-80.5 -65.5t-108.5 -45t-141.5 -16q-53 0 -108.5 15t-101.5 51 t-75.5 96.5t-29.5 152.5zM252 307q0 -104 55 -150t144 -46q98 0 159.5 39.5t98.5 103.5v336l-148 -25q-147 -23 -228 -87.5t-81 -170.5zM862 651h516q-4 178 -68.5 270.5t-181.5 92.5q-106 0 -178 -85t-88 -278z" />
<glyph unicode="&#xe7;" horiz-adv-x="1042" d="M129 555q0 158 38 268.5t99.5 180t139 101.5t157.5 32q92 0 160 -29t116 -74t75.5 -101t39.5 -112l-163 -24q-20 92 -69.5 149.5t-154.5 57.5q-55 0 -104 -25t-85 -79t-56.5 -140t-20.5 -211t21.5 -209t56.5 -135t82 -72.5t100 -21.5q51 0 92 17t70 47t46 68t26 81 l166 -21q-14 -55 -42 -108.5t-70 -97.5t-100.5 -74.5t-132.5 -38.5l-6 -88q86 -18 127 -69.5t41 -117.5q0 -92 -67.5 -147.5t-171.5 -55.5q-59 0 -114.5 14.5t-94.5 37.5l61 92q23 -10 56.5 -18.5t64.5 -8.5q47 0 84 19.5t37 74.5q0 49 -52.5 71t-127.5 32l30 166 q-66 10 -129 43.5t-113.5 100.5t-81 170t-30.5 255z" />
<glyph unicode="&#xe8;" horiz-adv-x="1093" d="M129 553q0 168 38 279.5t98.5 179t136 96.5t153.5 29q211 0 318.5 -145.5t107.5 -465.5h-684q2 -129 26.5 -209.5t63.5 -127t88 -62.5t103 -16q51 0 91 15t68.5 39.5t48 55.5t29.5 62l143 -31q-18 -53 -52 -102.5t-82 -87t-112.5 -60t-144.5 -22.5q-78 0 -155.5 27.5 t-141 93t-102.5 176t-39 276.5zM299 651h516q-4 178 -68.5 270.5t-181.5 92.5q-106 0 -178 -85t-88 -278zM249 1505h232l199 -280h-146z" />
<glyph unicode="&#xe9;" horiz-adv-x="1093" d="M129 553q0 168 38 279.5t98.5 179t136 96.5t153.5 29q211 0 318.5 -145.5t107.5 -465.5h-684q2 -129 26.5 -209.5t63.5 -127t88 -62.5t103 -16q51 0 91 15t68.5 39.5t48 55.5t29.5 62l143 -31q-18 -53 -52 -102.5t-82 -87t-112.5 -60t-144.5 -22.5q-78 0 -155.5 27.5 t-141 93t-102.5 176t-39 276.5zM299 651h516q-4 178 -68.5 270.5t-181.5 92.5q-106 0 -178 -85t-88 -278zM448 1225l199 280h232l-287 -280h-144z" />
<glyph unicode="&#xea;" horiz-adv-x="1093" d="M129 553q0 168 38 279.5t98.5 179t136 96.5t153.5 29q211 0 318.5 -145.5t107.5 -465.5h-684q2 -129 26.5 -209.5t63.5 -127t88 -62.5t103 -16q51 0 91 15t68.5 39.5t48 55.5t29.5 62l143 -31q-18 -53 -52 -102.5t-82 -87t-112.5 -60t-144.5 -22.5q-78 0 -155.5 27.5 t-141 93t-102.5 176t-39 276.5zM299 651h516q-4 178 -68.5 270.5t-181.5 92.5q-106 0 -178 -85t-88 -278zM243 1227l250 278h148l250 -278h-174l-150 135l-149 -135h-175z" />
<glyph unicode="&#xeb;" horiz-adv-x="1093" d="M129 553q0 168 38 279.5t98.5 179t136 96.5t153.5 29q211 0 318.5 -145.5t107.5 -465.5h-684q2 -129 26.5 -209.5t63.5 -127t88 -62.5t103 -16q51 0 91 15t68.5 39.5t48 55.5t29.5 62l143 -31q-18 -53 -52 -102.5t-82 -87t-112.5 -60t-144.5 -22.5q-78 0 -155.5 27.5 t-141 93t-102.5 176t-39 276.5zM299 651h516q-4 178 -68.5 270.5t-181.5 92.5q-106 0 -178 -85t-88 -278zM260 1300v185h195v-185h-195zM680 1300v185h195v-185h-195z" />
<glyph unicode="&#xec;" horiz-adv-x="491" d="M164 0v1106h164v-1106h-164zM-50 1505h232l199 -280h-146z" />
<glyph unicode="&#xed;" horiz-adv-x="491" d="M164 0v1106h164v-1106h-164zM112 1225l199 280h232l-287 -280h-144z" />
<glyph unicode="&#xee;" horiz-adv-x="491" d="M-76 1227l250 278h148l250 -278h-174l-150 135l-149 -135h-175zM164 0v1106h164v-1106h-164z" />
<glyph unicode="&#xef;" horiz-adv-x="491" d="M164 0v1106h164v-1106h-164zM-60 1300v185h195v-185h-195zM360 1300v185h195v-185h-195z" />
<glyph unicode="&#xf0;" horiz-adv-x="991" d="M82 473q0 98 19.5 187.5t62.5 156t109.5 106.5t162.5 40q94 0 165 -41t120 -101q-14 135 -63.5 231.5t-114.5 161.5l-72 -75h-168l143 149q-59 39 -118.5 60.5t-110.5 31.5l47 125q61 -16 135 -42.5t146 -69.5l78 82h168l-146 -154q51 -43 95 -101.5t77 -133t52.5 -169 t19.5 -210.5q0 -350 -96.5 -538.5t-319.5 -188.5q-78 0 -148.5 30.5t-125 93t-86 154.5t-31.5 215zM248 461q0 -98 19.5 -167t52 -111t74.5 -60.5t85 -18.5q125 0 183.5 139.5t62.5 458.5q-49 49 -115.5 90.5t-144.5 41.5q-104 0 -160.5 -93.5t-56.5 -279.5z" />
<glyph unicode="&#xf1;" horiz-adv-x="1122" d="M164 0v1106h119l30 -135q68 90 156 128t162 38q162 0 244.5 -101.5t82.5 -318.5v-717h-163v725q0 150 -50.5 214.5t-160.5 64.5q-78 0 -141.5 -44.5t-114.5 -105.5v-854h-164zM272 1268v145q45 33 92.5 51.5t90.5 18.5q49 0 80.5 -12.5t56.5 -26.5t49.5 -26.5t58.5 -12.5 q35 0 78 20.5t88 55.5v-146q-45 -33 -88 -51t-86 -18q-49 0 -80.5 12t-56.5 26.5t-49.5 27t-58.5 12.5q-35 0 -82.5 -20.5t-92.5 -55.5z" />
<glyph unicode="&#xf2;" horiz-adv-x="1157" d="M129 553q0 170 41 282.5t105.5 179t145.5 94.5t159 28t157.5 -27t144 -93.5t105.5 -179t41 -284.5t-41 -282.5t-105.5 -175t-144.5 -90t-157 -25.5q-78 0 -159 25.5t-145.5 91t-105.5 176t-41 280.5zM301 553q0 -233 77 -341t204 -108q129 0 202.5 105.5t73.5 343.5 q0 236 -78 347.5t-200 111.5q-121 0 -200 -113t-79 -346zM264 1505h232l199 -280h-146z" />
<glyph unicode="&#xf3;" horiz-adv-x="1157" d="M129 553q0 170 41 282.5t105.5 179t145.5 94.5t159 28t157.5 -27t144 -93.5t105.5 -179t41 -284.5t-41 -282.5t-105.5 -175t-144.5 -90t-157 -25.5q-78 0 -159 25.5t-145.5 91t-105.5 176t-41 280.5zM301 553q0 -233 77 -341t204 -108q129 0 202.5 105.5t73.5 343.5 q0 236 -78 347.5t-200 111.5q-121 0 -200 -113t-79 -346zM462 1225l199 280h232l-287 -280h-144z" />
<glyph unicode="&#xf4;" horiz-adv-x="1157" d="M129 553q0 170 41 282.5t105.5 179t145.5 94.5t159 28t157.5 -27t144 -93.5t105.5 -179t41 -284.5t-41 -282.5t-105.5 -175t-144.5 -90t-157 -25.5q-78 0 -159 25.5t-145.5 91t-105.5 176t-41 280.5zM301 553q0 -233 77 -341t204 -108q129 0 202.5 105.5t73.5 343.5 q0 236 -78 347.5t-200 111.5q-121 0 -200 -113t-79 -346zM256 1227l250 278h148l250 -278h-174l-150 135l-149 -135h-175z" />
<glyph unicode="&#xf5;" horiz-adv-x="1157" d="M129 553q0 170 41 282.5t105.5 179t145.5 94.5t159 28t157.5 -27t144 -93.5t105.5 -179t41 -284.5t-41 -282.5t-105.5 -175t-144.5 -90t-157 -25.5q-78 0 -159 25.5t-145.5 91t-105.5 176t-41 280.5zM301 553q0 -233 77 -341t204 -108q129 0 202.5 105.5t73.5 343.5 q0 236 -78 347.5t-200 111.5q-121 0 -200 -113t-79 -346zM282 1272v145q45 33 92.5 51.5t90.5 18.5q49 0 80.5 -12.5t56.5 -26.5t49.5 -26.5t58.5 -12.5q35 0 78 20.5t88 55.5v-146q-45 -33 -88 -51t-86 -18q-49 0 -80.5 12t-56.5 26.5t-49.5 27t-58.5 12.5 q-35 0 -82.5 -20.5t-92.5 -55.5z" />
<glyph unicode="&#xf6;" horiz-adv-x="1157" d="M129 553q0 170 41 282.5t105.5 179t145.5 94.5t159 28t157.5 -27t144 -93.5t105.5 -179t41 -284.5t-41 -282.5t-105.5 -175t-144.5 -90t-157 -25.5q-78 0 -159 25.5t-145.5 91t-105.5 176t-41 280.5zM301 553q0 -233 77 -341t204 -108q129 0 202.5 105.5t73.5 343.5 q0 236 -78 347.5t-200 111.5q-121 0 -200 -113t-79 -346zM272 1300v185h195v-185h-195zM692 1300v185h195v-185h-195z" />
<glyph unicode="&#xf7;" d="M133 590v143h840v-143h-840zM451 104v205h204v-205h-204zM451 1001v205h204v-205h-204z" />
<glyph unicode="&#xf8;" horiz-adv-x="1157" d="M129 553q0 170 41 282.5t105.5 179t145.5 94.5t159 28q98 0 184 -39l92 198h143l-125 -272q68 -66 111 -179.5t43 -291.5q0 -172 -41 -282.5t-105.5 -175t-144.5 -90t-157 -25.5q-43 0 -88.5 7t-85.5 23l-103 -219h-147l135 291q-72 63 -117 177t-45 294zM301 553 q0 -111 17.5 -191.5t50.5 -134.5l342 744q-59 41 -131 41q-121 0 -200 -113t-79 -346zM457 135q55 -31 125 -31q129 0 202.5 105.5t73.5 343.5q0 104 -17.5 183t-45.5 136z" />
<glyph unicode="&#xf9;" horiz-adv-x="1097" d="M164 385v721h164v-725q0 -80 14 -131t42 -82t64.5 -43t83.5 -12q82 0 139.5 40t98.5 103v850h164v-1106h-113l-37 139q-53 -82 -125.5 -120.5t-158.5 -38.5q-154 0 -245 96t-91 309zM229 1505h232l199 -280h-146z" />
<glyph unicode="&#xfa;" horiz-adv-x="1097" d="M164 385v721h164v-725q0 -80 14 -131t42 -82t64.5 -43t83.5 -12q82 0 139.5 40t98.5 103v850h164v-1106h-113l-37 139q-53 -82 -125.5 -120.5t-158.5 -38.5q-154 0 -245 96t-91 309zM479 1225l199 280h232l-287 -280h-144z" />
<glyph unicode="&#xfb;" horiz-adv-x="1097" d="M164 385v721h164v-725q0 -80 14 -131t42 -82t64.5 -43t83.5 -12q82 0 139.5 40t98.5 103v850h164v-1106h-113l-37 139q-53 -82 -125.5 -120.5t-158.5 -38.5q-154 0 -245 96t-91 309zM223 1215l250 278h148l250 -278h-174l-150 135l-149 -135h-175z" />
<glyph unicode="&#xfc;" horiz-adv-x="1097" d="M164 385v721h164v-725q0 -80 14 -131t42 -82t64.5 -43t83.5 -12q82 0 139.5 40t98.5 103v850h164v-1106h-113l-37 139q-53 -82 -125.5 -120.5t-158.5 -38.5q-154 0 -245 96t-91 309zM241 1300v185h195v-185h-195zM661 1300v185h195v-185h-195z" />
<glyph unicode="&#xfd;" horiz-adv-x="937" d="M20 1106h175l294 -997l273 997h156l-320 -1135q-23 -76 -45.5 -133t-54 -95t-78.5 -57.5t-121 -19.5q-59 0 -133 19v129q35 -8 65.5 -12.5t63.5 -4.5q74 0 102.5 49.5t53.5 153.5h-78zM378 1225l199 280h232l-287 -280h-144z" />
<glyph unicode="&#xfe;" horiz-adv-x="1081" d="M164 -348v1853h164v-499q51 61 120.5 96t161.5 35q70 0 131.5 -31t108.5 -99.5t74.5 -177t27.5 -264.5q0 -287 -107.5 -436t-299.5 -149q-141 0 -217 86v-414h-164zM328 190q37 -39 83 -65.5t101 -26.5q59 0 108.5 26t85 83t55 148t19.5 220q0 123 -17.5 205t-49 131.5 t-75.5 69.5t-95 20q-63 0 -116.5 -33.5t-98.5 -80.5v-697z" />
<glyph unicode="&#xff;" horiz-adv-x="937" d="M20 1106h175l294 -997l273 997h156l-320 -1135q-23 -76 -45.5 -133t-54 -95t-78.5 -57.5t-121 -19.5q-59 0 -133 19v129q35 -8 65.5 -12.5t63.5 -4.5q74 0 102.5 49.5t53.5 153.5h-78zM163 1300v185h195v-185h-195zM583 1300v185h195v-185h-195z" />
<glyph unicode="&#x131;" horiz-adv-x="491" d="M164 0v1106h164v-1106h-164z" />
<glyph unicode="&#x152;" horiz-adv-x="1830" d="M143 737q0 215 45 361.5t119 236.5t169 130t198 40q90 0 174 -30h860v-134h-676q70 -86 113 -214t51 -314h451v-131h-451q-6 -199 -50 -331t-114 -218h676v-133h-860q-84 -31 -174 -31q-102 0 -197.5 40t-169.5 130t-119 236.5t-45 361.5zM322 737q0 -313 87 -474 t265 -161t265 161t87 474t-87 474t-265 161t-265 -161t-87 -474z" />
<glyph unicode="&#x153;" horiz-adv-x="1810" d="M129 553q0 170 41 282.5t105.5 179t145.5 94.5t159 28q106 0 201.5 -52.5t148.5 -171.5q55 123 146 173.5t196 50.5q211 0 318.5 -145.5t107.5 -465.5h-684q2 -129 26.5 -209.5t63.5 -127t88 -62.5t102 -16q51 0 91 15t69 39.5t48.5 55.5t29.5 62l143 -31 q-18 -53 -52 -102.5t-82 -87t-112.5 -60t-144.5 -22.5q-104 0 -198.5 48t-153.5 173q-49 -113 -146.5 -167t-205.5 -54q-78 0 -159 25.5t-145.5 91t-105.5 176t-41 280.5zM301 553q0 -233 77 -338.5t204 -105.5t201.5 103t74.5 341t-78 346.5t-200 108.5q-121 0 -200 -111 t-79 -344zM1016 651h516q-4 178 -68.5 270.5t-181.5 92.5q-106 0 -178 -85t-88 -278z" />
<glyph unicode="&#x178;" horiz-adv-x="1048" d="M20 1475h191l321 -705l326 705h170l-414 -885v-590h-172v590zM221 1608v184h195v-184h-195zM641 1608v184h195v-184h-195z" />
<glyph unicode="&#x2c6;" horiz-adv-x="770" d="M61 1227l250 278h148l250 -278h-174l-150 135l-149 -135h-175z" />
<glyph unicode="&#x2c7;" horiz-adv-x="770" d="M61 1505h175l149 -133l150 133h174l-250 -278h-148z" />
<glyph unicode="&#x2da;" horiz-adv-x="604" d="M61 1425q0 111 69 172.5t173 61.5t172 -58.5t68 -175.5q0 -111 -67.5 -170t-172.5 -59q-104 0 -173 59t-69 170zM190 1425q0 -61 31 -95t82 -34t81 34t30 95t-30 97.5t-81 36.5t-82 -36.5t-31 -97.5z" />
<glyph unicode="&#x2dc;" horiz-adv-x="716" d="M61 1272v145q45 33 92.5 51.5t90.5 18.5q49 0 80.5 -12.5t56.5 -26.5t49.5 -26.5t58.5 -12.5q35 0 78 20.5t88 55.5v-146q-45 -33 -88 -51t-86 -18q-49 0 -80.5 12t-56.5 26.5t-49.5 27t-58.5 12.5q-35 0 -82.5 -20.5t-92.5 -55.5z" />
<glyph unicode="&#x2000;" horiz-adv-x="942" />
<glyph unicode="&#x2001;" horiz-adv-x="1884" />
<glyph unicode="&#x2002;" horiz-adv-x="942" />
<glyph unicode="&#x2003;" horiz-adv-x="1884" />
<glyph unicode="&#x2004;" horiz-adv-x="626" />
<glyph unicode="&#x2005;" horiz-adv-x="471" />
<glyph unicode="&#x2006;" horiz-adv-x="313" />
<glyph unicode="&#x2007;" horiz-adv-x="313" />
<glyph unicode="&#x2008;" horiz-adv-x="235" />
<glyph unicode="&#x2009;" horiz-adv-x="376" />
<glyph unicode="&#x200a;" horiz-adv-x="104" />
<glyph unicode="&#x2010;" horiz-adv-x="870" d="M123 588v147h625v-147h-625z" />
<glyph unicode="&#x2011;" horiz-adv-x="870" d="M123 588v147h625v-147h-625z" />
<glyph unicode="&#x2012;" horiz-adv-x="870" d="M123 588v147h625v-147h-625z" />
<glyph unicode="&#x2013;" horiz-adv-x="819" d="M0 588v147h819v-147h-819z" />
<glyph unicode="&#x2014;" horiz-adv-x="1228" d="M0 588v147h1229v-147h-1229z" />
<glyph unicode="&#x2018;" horiz-adv-x="528" d="M121 999v193l125 295h96l-80 -293h64v-195h-205z" />
<glyph unicode="&#x2019;" horiz-adv-x="528" d="M154 956l79 293h-63v195h205v-193l-125 -295h-96z" />
<glyph unicode="&#x201a;" horiz-adv-x="528" d="M154 -293l79 293h-63v195h205v-193l-125 -295h-96z" />
<glyph unicode="&#x201c;" horiz-adv-x="854" d="M121 999v193l125 295h96l-80 -293h64v-195h-205zM446 999v193l125 295h97l-80 -293h63v-195h-205z" />
<glyph unicode="&#x201d;" horiz-adv-x="835" d="M154 956l79 293h-63v195h205v-193l-125 -295h-96zM461 956l79 293h-63v195h205v-193l-125 -295h-96z" />
<glyph unicode="&#x201e;" horiz-adv-x="835" d="M461 -293l79 293h-63v195h205v-193l-125 -295h-96zM154 -293l79 293h-63v195h205v-193l-125 -295h-96z" />
<glyph unicode="&#x2022;" horiz-adv-x="645" d="M164 516v297h317v-297h-317z" />
<glyph unicode="&#x2026;" horiz-adv-x="1413" d="M133 0v205h205v-205h-205zM604 0v205h205v-205h-205zM1075 0v205h205v-205h-205z" />
<glyph unicode="&#x202f;" horiz-adv-x="376" />
<glyph unicode="&#x2039;" horiz-adv-x="636" d="M123 668l239 419h132l-189 -425l168 -455h-131z" />
<glyph unicode="&#x203a;" horiz-adv-x="636" d="M143 1087h131l240 -419l-219 -461h-131l168 455z" />
<glyph unicode="&#x2044;" horiz-adv-x="552" d="M-291 -205l957 1864h176l-957 -1864h-176z" />
<glyph unicode="&#x205f;" horiz-adv-x="471" />
<glyph unicode="&#x2074;" horiz-adv-x="696" d="M72 1006v127l172 505h145l-180 -514h168l22 228h109v-228h115v-118h-115v-146h-135v146h-301z" />
<glyph unicode="&#x20ac;" d="M51 496l31 122h141q-2 10 -2 21v135q0 12 2 23h-172l31 123h151q20 162 68.5 265t112 162.5t138.5 83t148 23.5q111 0 182.5 -28.5t125.5 -67.5l-35 -131q-66 49 -123 75.5t-135 26.5q-135 0 -214 -99.5t-104 -309.5h502l-31 -123h-479q-2 -10 -2 -23v-135q0 -10 2 -21 h436l-30 -122h-398q12 -111 40 -185.5t67 -122t88 -68t104 -20.5q72 0 130.5 23.5t111.5 54.5v-139q-37 -23 -103.5 -46.5t-164.5 -23.5q-63 0 -133 20.5t-131.5 78t-108.5 161t-66 267.5h-180z" />
<glyph unicode="&#x2122;" horiz-adv-x="1624" d="M92 1360v115h821l174 -670l164 670h205v-811h-129v655l-180 -655h-129l-189 655v-655h-124v696h-242v-696h-133v696h-238z" />
<glyph unicode="&#xe000;" d="M0 1105h1105v-1105h-1105v1105z" />
<glyph unicode="&#xfb01;" horiz-adv-x="1103" d="M41 973v133h164v113q0 131 89 217t265 86q123 0 208 -14.5t136 -26.5v-129q-47 10 -131 23.5t-197 13.5q-111 0 -158.5 -39t-47.5 -119v-125h571v-1106h-164v973h-407v-973h-164v973h-164z" />
<glyph unicode="&#xfb02;" horiz-adv-x="1103" d="M41 973v133h164v113q0 131 89 217t257 86q117 0 214 -12.5t175 -28.5v-1481h-164v1370q-41 8 -91 13.5t-118 5.5q-199 0 -198 -158v-125h206v-133h-206v-973h-164v973h-164z" />
<glyph unicode="&#xfb03;" horiz-adv-x="1675" d="M41 973v133h164v96q0 131 89 217t265 86q117 0 204 -14t138 -29q88 59 229 60q123 0 209 -15.5t136 -25.5v-129q-45 10 -130 23.5t-198 13.5q-111 0 -159 -39t-48 -119v-125h571v-1106h-163v973h-408v-973h-164v973h-407v-973h-164v973h-164zM369 1106h407v113 q0 74 29 135q-47 8 -104.5 13t-125.5 5q-111 0 -158.5 -39t-47.5 -119v-108z" />
<glyph unicode="&#xfb04;" horiz-adv-x="1654" d="M41 973v133h164v96q0 131 89 217t265 86q117 0 204 -14t138 -29q88 59 229 60q129 0 220.5 -17.5t140.5 -29.5v-1475h-164v1376q-41 4 -85 8.5t-95 4.5q-111 0 -159 -39t-48 -119v-125h190v-133h-190v-973h-164v973h-407v-973h-164v973h-164zM369 1106h407v113 q0 74 29 135q-47 8 -104.5 13t-125.5 5q-111 0 -158.5 -39t-47.5 -119v-108z" />
<glyph horiz-adv-x="561" d="M61 1812h244l195 -239h-148z" />
<glyph horiz-adv-x="737" d="M61 1608v184h195v-184h-195zM481 1608v184h195v-184h-195z" />
<glyph horiz-adv-x="561" d="M61 1573l195 239h244l-291 -239h-148z" />
<glyph horiz-adv-x="770" d="M61 1573l244 239h160l244 -239h-185l-139 104l-139 -104h-185z" />
<glyph horiz-adv-x="770" d="M61 1812h185l139 -104l139 104h185l-244 -239h-160z" />
<glyph horiz-adv-x="716" d="M61 1579v145q45 33 92.5 51.5t90.5 18.5q49 0 80.5 -12.5t56.5 -26.5t49.5 -26.5t58.5 -12.5q35 0 78 20.5t88 55.5v-145q-45 -33 -88 -51.5t-86 -18.5q-49 0 -80.5 12.5t-56.5 26.5t-49.5 26.5t-58.5 12.5q-35 0 -82.5 -20.5t-92.5 -55.5z" />
</font>
</defs>
</svg>
